<svg width="50" height="37" viewBox="0 0 50 37" fill="none" xmlns="http://www.w3.org/2000/svg">
<path d="M31.8182 22.7273C25.75 22.7273 13.6364 25.75 13.6364 31.8182V36.3636H50V31.8182C50 25.75 37.8864 22.7273 31.8182 22.7273ZM11.3636 13.6364V6.81818H6.81818V13.6364H0V18.1818H6.81818V25H11.3636V18.1818H18.1818V13.6364M31.8182 18.1818C34.2292 18.1818 36.5415 17.224 38.2464 15.5192C39.9513 13.8143 40.9091 11.502 40.9091 9.09091C40.9091 6.67985 39.9513 4.36754 38.2464 2.66267C36.5415 0.957789 34.2292 0 31.8182 0C29.4071 0 27.0948 0.957789 25.3899 2.66267C23.6851 4.36754 22.7273 6.67985 22.7273 9.09091C22.7273 11.502 23.6851 13.8143 25.3899 15.5192C27.0948 17.224 29.4071 18.1818 31.8182 18.1818Z" fill="#A0508D"/>
</svg>
