<svg width="50" height="43" viewBox="0 0 50 43" fill="none" xmlns="http://www.w3.org/2000/svg">
<path d="M0 23.6842V18.4211H36.8421V23.6842H0ZM0 39.4737V34.2105H36.8421V39.4737H0ZM0 7.89474V2.63158H36.8421V7.89474H0ZM44.7368 10.5263V2.63158H42.1053V0H47.3684V10.5263H44.7368ZM42.1053 34.2105V31.5789H50V42.1053H42.1053V39.4737H47.3684V38.1579H44.7368V35.5263H47.3684V34.2105H42.1053ZM48.0263 15.7895C49.1316 15.7895 50 16.6842 50 17.7632C50 18.2895 49.7895 18.7895 49.4474 19.1316L45.0526 23.6842H50V26.3158H42.1053V23.8947L47.3684 18.4211H42.1053V15.7895H48.0263Z" fill="#BFC146"/>
</svg>
